# xmcd
#
# Track frame offsets:
#	150
#	24795
#	49226
#	77194
#	123730
#	141156
#	174326
#
# Disc length: 2669 seconds
#
# Revision: 5
# Processed by: cddbd v1.5.2PL0 Copyright (c) Steve Scherf et al.
# Submitted via: audiograbber 1.83.01
#
DISCID=570a6b07
DTITLE=Joe Bonamassa - Live From Nowhere In Particular [CD1]
DYEAR=2008
DGENRE=Bluesrock
TTITLE0=Bridge To Better Days
TTITLE1=Walk In My Shadows
TTITLE2=So Many Roads
TTITLE3=India/Mountain Time
TTITLE4=Another Kinda Love
TTITLE5=Sloe Gin
TTITLE6=One Of These Days
EXTD=YEAR: 2008
EXTT0=
EXTT1=
EXTT2=
EXTT3=
EXTT4=
EXTT5=
EXTT6=
PLAYORDER=
